<mxfile host="app.diagrams.net" agent="Mozilla/5.0 (Windows NT 10.0; Win64; x64) AppleWebKit/537.36 (KHTML, like Gecko) Chrome/141.0.0.0 Safari/537.36" version="28.2.8">
  <diagram id="bai9" name="Bai9">
    <mxGraphModel dx="1281" dy="527" grid="1" gridSize="10" guides="1" tooltips="1" connect="1" arrows="1" fold="1" page="1" pageScale="1" pageWidth="1169" pageHeight="827" math="0" shadow="0">
      <root>
        <mxCell id="0" />
        <mxCell id="1" parent="0" />
        <mxCell id="regBoundary" value="" style="shape=rectangle;whiteSpace=wrap;html=1;strokeWidth=2;rounded=0;" parent="1" vertex="1">
          <mxGeometry x="220" y="90" width="780" height="520" as="geometry" />
        </mxCell>
        <mxCell id="uc_login9" value="Đăng nhập" style="ellipse;whiteSpace=wrap;html=1;aspect=fixed;" parent="regBoundary" vertex="1">
          <mxGeometry x="160" y="120" width="160" height="70" as="geometry" />
        </mxCell>
        <mxCell id="uc_register_course" value="Đăng ký môn học" style="ellipse;whiteSpace=wrap;html=1;aspect=fixed;" parent="regBoundary" vertex="1">
          <mxGeometry x="160" y="230" width="200" height="70" as="geometry" />
        </mxCell>
        <mxCell id="uc_check_schedule" value="Kiểm tra lịch học" style="ellipse;whiteSpace=wrap;html=1;aspect=fixed;" parent="regBoundary" vertex="1">
          <mxGeometry x="430" y="220" width="200" height="70" as="geometry" />
        </mxCell>
        <mxCell id="uc_conflict" value="Xem môn học trùng giờ" style="ellipse;whiteSpace=wrap;html=1;aspect=fixed;" parent="regBoundary" vertex="1">
          <mxGeometry x="420" y="370" width="230" height="70" as="geometry" />
        </mxCell>
        <mxCell id="uc_confirm" value="Xác nhận đăng ký" style="ellipse;whiteSpace=wrap;html=1;aspect=fixed;" parent="regBoundary" vertex="1">
          <mxGeometry x="160" y="340" width="200" height="70" as="geometry" />
        </mxCell>
        <mxCell id="include_check" value="«include»" style="endArrow=open;dashed=1;html=1;fontSize=12;labelBackgroundColor=#ffffff;" parent="regBoundary" source="uc_register_course" target="uc_check_schedule" edge="1">
          <mxGeometry relative="1" as="geometry">
            <mxPoint y="-10" as="offset" />
          </mxGeometry>
        </mxCell>
        <mxCell id="extend_conflict" value="«extend»" style="endArrow=open;dashed=1;html=1;fontSize=12;labelBackgroundColor=#ffffff;" parent="regBoundary" source="uc_conflict" target="uc_check_schedule" edge="1">
          <mxGeometry relative="1" as="geometry">
            <mxPoint y="-10" as="offset" />
          </mxGeometry>
        </mxCell>
        <mxCell id="include_confirm" value="«include»" style="endArrow=open;dashed=1;html=1;fontSize=12;labelBackgroundColor=#ffffff;" parent="regBoundary" source="uc_register_course" target="uc_confirm" edge="1">
          <mxGeometry relative="1" as="geometry">
            <mxPoint y="-10" as="offset" />
          </mxGeometry>
        </mxCell>
        <mxCell id="UsBEWw8T8D9ZuVNj9LwH-1" value="Hệ thống đăng ký môn học" style="text;html=1;whiteSpace=wrap;strokeColor=none;fillColor=none;align=center;verticalAlign=middle;rounded=0;" vertex="1" parent="regBoundary">
          <mxGeometry x="280" y="20" width="190" height="30" as="geometry" />
        </mxCell>
        <mxCell id="actor_student" value="Sinh viên" style="shape=umlActor;verticalLabelPosition=bottom;verticalAlign=top;html=1;" parent="1" vertex="1">
          <mxGeometry x="60" y="260" width="60" height="100" as="geometry" />
        </mxCell>
        <mxCell id="assoc_student_login9" style="endArrow=none;html=1;" parent="1" source="actor_student" target="uc_login9" edge="1">
          <mxGeometry relative="1" as="geometry" />
        </mxCell>
        <mxCell id="assoc_student_register" style="endArrow=none;html=1;" parent="1" source="actor_student" target="uc_register_course" edge="1">
          <mxGeometry relative="1" as="geometry" />
        </mxCell>
        <mxCell id="assoc_student_confirm" style="endArrow=none;html=1;" parent="1" source="actor_student" target="uc_confirm" edge="1">
          <mxGeometry relative="1" as="geometry" />
        </mxCell>
      </root>
    </mxGraphModel>
  </diagram>
</mxfile>
